<?xml version="1.0" encoding="UTF-8" standalone="no"?>
<!-- Created with Inkscape (http://www.inkscape.org/) -->

<svg
   xmlns:dc="http://purl.org/dc/elements/1.1/"
   xmlns:cc="http://creativecommons.org/ns#"
   xmlns:rdf="http://www.w3.org/1999/02/22-rdf-syntax-ns#"
   xmlns:svg="http://www.w3.org/2000/svg"
   xmlns="http://www.w3.org/2000/svg"
   xmlns:sodipodi="http://sodipodi.sourceforge.net/DTD/sodipodi-0.dtd"
   xmlns:inkscape="http://www.inkscape.org/namespaces/inkscape"
   width="480px"
   height="120px"
   viewBox="0 0 480 120"
   version="1.1"
   id="SVGRoot"
   inkscape:version="0.92.3 (2405546, 2018-03-11)"
   sodipodi:docname="SVL.svg">
  <sodipodi:namedview
     id="base"
     pagecolor="#ffffff"
     bordercolor="#666666"
     borderopacity="1.0"
     inkscape:pageopacity="0.0"
     inkscape:pageshadow="2"
     inkscape:zoom="8.0000001"
     inkscape:cx="12.027026"
     inkscape:cy="44.787617"
     inkscape:document-units="px"
     inkscape:current-layer="layer1"
     showgrid="false"
     inkscape:window-width="2560"
     inkscape:window-height="1412"
     inkscape:window-x="0"
     inkscape:window-y="0"
     inkscape:window-maximized="1"
     showguides="false" />
  <defs
     id="defs861" />
  <metadata
     id="metadata864">
    <rdf:RDF>
      <cc:Work
         rdf:about="">
        <dc:format>image/svg+xml</dc:format>
        <dc:type
           rdf:resource="http://purl.org/dc/dcmitype/StillImage" />
        <dc:title />
      </cc:Work>
    </rdf:RDF>
  </metadata>
  <g
     id="layer1"
     inkscape:groupmode="layer"
     inkscape:label="Layer 1">
    <path
       style="fill:#ffffff;stroke:#fffffb;stroke-width:1px;stroke-linecap:butt;stroke-linejoin:miter;stroke-opacity:1;fill-opacity:1"
       d="m 19.003495,86.500817 18.826717,-8.087534 0.08839,-2.519068 0.707107,-2.342291 1.502602,-1.856156 2.077126,-1.325825 2.209708,-0.751301 2.386486,-0.04419 0.883883,0.176777 4.596194,-7.954951 -1.281631,-2.077127 -0.574524,-1.988737 -0.08839,-3.093593 0.883883,-2.298097 1.502602,-2.032932 2.253903,-1.193242 -0.962229,-3.591088 -1.645227,-0.03283 -2.165515,-0.883884 -1.900349,-1.679379 -1.37002,-2.253902 -0.662912,-3.314563 0.22097,-3.137787 2.032932,-3.005204 2.386486,-1.546796 2.474874,-0.618718 2.872621,-0.132583 2.298097,0.618719 2.298097,1.723573 33.720154,-14.893437 0.132583,-1.502602 0.53033,-2.298097 1.104854,-1.988738 2.032932,-1.9445432 2.386491,-1.0606601 2.87262,-0.3977476 3.35875,0.4419418 1.94455,1.1490485 2.03293,1.9887376 0.79549,2.563262 0.22098,2.784233 -0.53033,3.270369 -1.50261,2.209709 -2.12132,1.59099 -1.32582,0.486136 v 15.954096 l 1.94454,0.883884 2.03293,1.370019 1.45841,1.988738 0.57453,2.519068 -0.0442,2.298097 -0.61872,2.43068 -1.32582,2.342291 -2.07713,1.767767 -1.94454,0.574524 v 14.230524 l 2.38648,0.972272 1.50261,1.370019 1.4584,2.298097 0.61872,2.253903 v 2.607456 l -0.44194,2.386485 -1.59099,2.253903 -1.76777,1.414214 -2.03293,0.795495 v 14.584078 l 1.37002,0.39775 1.85616,1.01646 1.41421,1.41422 1.23744,2.65165 0.17677,2.69584 -0.39775,2.96101 -1.67937,2.51907 -2.25391,1.81196 -2.65165,0.83969 h -2.82842 l -3.270374,-1.10485 -1.59099,-1.28163 -1.502602,-2.16552 -0.53033,-1.76777 H 60.634405 l -0.795495,1.72358 -1.723573,2.43068 -2.607456,1.76776 -3.358757,0.83969 -4.110058,-0.57452 -2.386486,-1.81196 -1.325825,-2.12132 -0.707107,-2.38649 H 21.389979 l -0.662913,2.16552 -1.104854,1.98873 -1.988738,1.81197 -3.093592,1.19324 -3.314563,0.17677 -3.1377863,-0.97227 -2.298097,-1.85615 -1.2374368,-2.87262 -0.4419418,-2.69585 0.1767767,-3.31456 1.6351844,-2.78423 1.5026019,-1.10486 2.5632621,-0.88388 V 99.317135 L 8.0875327,98.919387 5.4800765,96.930649 3.7123096,94.146417 l -0.044194,-3.800699 1.016466,-3.137787 1.9887378,-2.386485 2.9905122,-1.73619 2.7105364,-0.07577 3.226174,0.309359 1.502602,0.928078 z"
       id="path882"
       inkscape:connector-curvature="0" />
    <path
       style="fill:#ffffff;fill-opacity:1;stroke:#ffffff;stroke-width:1px;stroke-linecap:butt;stroke-linejoin:miter;stroke-opacity:1"
       d="M 9.5388324,89.710248 9.5312499,6.7303334 103.63534,7.1722831 103.67518,15.409647 59.144069,55.279126 46.385855,77.606014 Z"
       id="path880"
       inkscape:connector-curvature="0"
       sodipodi:nodetypes="ccccccc" />
    <path
       style="fill:#ffffff;fill-opacity:1;stroke:#000064;stroke-width:0.025;stroke-linecap:butt;stroke-linejoin:miter;stroke-miterlimit:4;stroke-dasharray:none;stroke-opacity:1"
       d="m 127.26612,75.479948 v -6.223292 l 0.23789,-0.568455 0.23791,-0.29921 0.26765,-0.239442 0.65425,-0.209472 h 2.79548 l 0.56504,0.239435 0.20817,0.269246 0.0297,0.32912 h 2.37912 l -0.11896,-0.927486 -0.32714,-0.837755 -0.80294,-1.166876 -0.86243,-0.418851 -0.98139,-0.209478 h -3.92556 l -1.04086,0.508634 -0.62451,0.658214 -0.50557,0.807846 -0.38661,0.987359 v 8.347598 l 0.44609,1.226697 0.77321,0.867665 1.57617,0.777909 1.2193,0.119593 h 3.03338 l 0.95164,-0.388946 1.27878,-1.196786 0.41635,-1.017271 v -0.927513 h -2.31965 v 0.448788 l -0.17843,0.359036 -0.1487,0.08963 -0.56503,0.05969 h -3.6579 l -0.43121,-0.418878 -0.16356,-0.448788 -0.0297,-0.299209 z"
       id="path1012"
       inkscape:connector-curvature="0" />
    <path
       style="fill:#ffffff;fill-opacity:1;stroke:#000064;stroke-width:0.025;stroke-linecap:butt;stroke-linejoin:miter;stroke-miterlimit:4;stroke-dasharray:none;stroke-opacity:1"
       d="m 226.96768,76.376292 0.0762,-8.101733 0.12518,-0.339718 0.41267,-0.662044 0.48803,-0.636491 0.48199,-0.448029 0.54543,-0.474495 0.55809,-0.289942 0.58347,-0.250521 0.69763,-0.132179 h 3.55156 l 0.84983,0.237171 0.50737,0.3295 0.74837,0.672136 0.50736,0.57986 0.50736,0.72489 0.31711,0.764359 0.0635,0.514023 v 8.2238 l -0.19025,0.474468 -0.36784,0.579887 -0.50736,0.59303 -0.83715,0.672163 -0.59616,0.355834 -0.59615,0.184804 H 230.112 l -0.482,-0.184804 -0.62151,-0.355834 -0.49469,-0.448082 -0.41857,-0.421748 -0.44394,-0.672116 -0.26637,-0.474469 -0.22832,-0.434911 -0.18892,-0.578809 3.12231,-0.462056 0.12478,0.356738 0.0561,0.158365 0.11388,0.169948 0.1522,0.237172 0.20292,0.164913 0.2537,0.09215 h 3.05052 l 0.24735,-0.111788 0.19024,-0.137974 0.24734,-0.256882 0.13319,-0.256889 0.0635,-0.355852 v -6.398505 l -0.0379,-0.349264 -0.10781,-0.276727 -0.17123,-0.256909 -0.22831,-0.210991 -0.22831,-0.105492 h -3.19007 l -0.28541,0.105492 -0.19658,0.145029 -0.1776,0.197387 -0.1332,0.256909 -0.03,0.227858 -0.0493,6.605312 z"
       id="path1013-0"
       inkscape:connector-curvature="0"
       sodipodi:nodetypes="ccccccccccccccccccccccccccccccccccccccccccccccccccccccccccccc" />
    <path
       style="fill:#ffffff;fill-opacity:1;stroke:#000064;stroke-width:0.025;stroke-linecap:butt;stroke-linejoin:miter;stroke-miterlimit:4;stroke-dasharray:none;stroke-opacity:1"
       d="m 158.10345,76.332873 0.0299,-8.1026 0.12519,-0.334788 0.41268,-0.652325 0.48803,-0.627218 0.48199,-0.441514 0.54541,-0.467547 0.5581,-0.285714 0.58348,-0.246735 0.69763,-0.130168 h 3.55155 l 0.84984,0.233894 0.50736,0.32469 0.74837,0.662317 0.50736,0.571408 0.50737,0.714309 0.31711,0.753208 0.0635,0.506497 v 8.103771 l -0.19024,0.46752 -0.36784,0.571427 -0.50737,0.584371 -0.83714,0.662344 -0.59616,0.35065 -0.59616,0.182034 h -4.78191 l -0.482,-0.182034 -0.62151,-0.35065 -0.49469,-0.441534 -0.41857,-0.415553 -0.44394,-0.662344 -0.26637,-0.46752 -0.22832,-0.428578 -0.14265,-0.451618 3.12231,-0.45449 0.0785,0.232134 0.0561,0.1561 0.11389,0.167684 0.15219,0.2339 0.20293,0.162396 0.2537,0.09088 h 3.05051 l 0.24735,-0.110276 0.19024,-0.136215 0.24735,-0.253132 0.13318,-0.253132 0.0635,-0.350677 V 69.51298 l -0.0379,-0.344175 -0.1078,-0.272697 -0.17124,-0.253159 -0.2283,-0.207713 -0.22831,-0.10399 h -3.19008 l -0.28539,0.10399 -0.19659,0.142756 -0.17761,0.194617 -0.13318,0.253159 -0.03,0.224587 -0.003,6.628028 z"
       id="path1013-0-2"
       inkscape:connector-curvature="0"
       sodipodi:nodetypes="ccccccccccccccccccccccccccccccccccccccccccccccccccccccccccccc" />
    <path
       style="fill:#ffffff;fill-opacity:1;stroke:#000064;stroke-width:0.025;stroke-linecap:butt;stroke-linejoin:miter;stroke-miterlimit:4;stroke-dasharray:none;stroke-opacity:1"
       d="m 295.76138,101.82576 0.0763,-7.976624 0.12514,-0.334511 0.41265,-0.651787 0.48803,-0.626666 0.48201,-0.441138 0.54542,-0.467137 0.55808,-0.285492 0.58349,-0.246485 0.69761,-0.130169 h 3.55156 l 0.84985,0.233647 0.50735,0.324386 0.74837,0.661756 0.50735,0.570928 0.50741,0.713712 0.31709,0.752551 0.0633,0.506066 v 8.096883 l -0.19032,0.46712 -0.36785,0.57095 -0.50739,0.58386 -0.83712,0.66179 -0.59619,0.35034 -0.59615,0.18178 h -4.7819 l -0.482,-0.18178 -0.62151,-0.35034 -0.49468,-0.44116 -0.41858,-0.41522 -0.44396,-0.66175 -0.26637,-0.46715 -0.22837,-0.42821 -0.18862,-0.57015 3.12198,-0.45429 0.12498,0.35099 0.0562,0.15611 0.11381,0.16742 0.15232,0.23365 0.20292,0.16214 0.2537,0.0909 h 3.0505 l 0.24724,-0.11025 0.19035,-0.13595 0.24724,-0.25294 0.13318,-0.25294 0.0634,-0.35036 v -6.29972 l -0.038,-0.343867 -0.10781,-0.272474 -0.17121,-0.252927 -0.22835,-0.207469 -0.22837,-0.103689 h -3.19006 l -0.28541,0.103689 -0.19664,0.142763 -0.17749,0.194373 -0.1332,0.252905 -0.0299,0.224335 -0.0494,6.503311 z"
       id="path1013-0-0"
       inkscape:connector-curvature="0"
       sodipodi:nodetypes="ccccccccccccccccccccccccccccccccccccccccccccccccccccccccccccc" />
    <path
       style="fill:#ffffff;fill-opacity:1;stroke:#000064;stroke-width:0.025;stroke-linecap:butt;stroke-linejoin:miter;stroke-miterlimit:4;stroke-dasharray:none;stroke-opacity:1"
       d="m 331.88884,105.45255 3.95423,-14.862007 h 3.60475 l 3.90633,14.810957 h -3.14531 l -2.48589,-8.736667 -2.3336,8.736667 z"
       id="path1017-7-6-7"
       inkscape:connector-curvature="0" />
    <path
       style="fill:#ffffff;fill-opacity:1;stroke:#000064;stroke-width:0.025;stroke-linecap:butt;stroke-linejoin:miter;stroke-miterlimit:4;stroke-dasharray:none;stroke-opacity:1"
       d="m 170.81648,65.026812 v 14.681064 h 7.85984 l 0.84908,-0.278386 0.60092,-0.392744 0.56505,-0.538846 0.49332,-0.538878 0.35876,-0.666695 0.15245,-0.42009 0.10758,-0.566264 v -1.674025 l -0.083,-0.568309 -0.15222,-0.464976 -0.26637,-0.452039 -0.27904,-0.335815 -0.36786,-0.258295 0.30442,-0.193871 0.38053,-0.335814 0.27906,-0.49081 0.20296,-0.555366 0.0254,-0.529559 v -1.5499 l -0.0635,-0.60708 -0.13949,-0.490783 -0.24097,-0.568303 -0.3425,-0.490789 -0.60883,-0.568302 -0.44394,-0.335795 -0.68493,-0.374592 -0.67227,-0.309981 -0.46931,-0.116072 h -2.09289 v 2.918982 h 1.80111 l 0.31713,0.18102 0.29172,0.219805 0.19024,0.258321 0.11401,0.374565 v 1.136586 l -0.16474,0.439141 -0.34251,0.322932 -0.19021,0.103223 -0.44396,0.103222 h -1.57282 v 2.970661 h 2.00408 l 0.32979,0.155093 0.2157,0.193619 0.11399,0.245225 0.076,0.439148 v 0.697443 l -0.10147,0.361676 -0.27906,0.322924 -0.34244,0.206708 -0.32981,0.09064 -0.2283,0.02564 h -3.69113 V 74.0381 l 2.22921,0.02564 0.003,-2.970446 -2.23265,0.01267 V 67.94806 l 2.2317,0.0053 v -2.913386 z"
       id="path1036-1-3"
       inkscape:connector-curvature="0"
       sodipodi:nodetypes="ccccccccccccccccccccccccccccccccccccccccccccccccccccccccccccccccc" />
    <path
       style="fill:#ffffff;fill-opacity:1;stroke:#000064;stroke-width:0.025;stroke-linecap:butt;stroke-linejoin:miter;stroke-miterlimit:4;stroke-dasharray:none;stroke-opacity:1"
       d="m 199.0686,65.033659 h -7.31873 l -1.11215,0.577043 -0.78928,0.613121 -0.6099,0.685233 -0.53814,0.721286 -0.43052,1.045895 v 0.540964 7.068681 l 0.25114,0.937685 0.68165,0.973711 1.00452,1.009843 0.89691,0.432754 0.6099,0.072 h 7.53398 V 76.57424 h -6.99584 l -0.32288,-0.03624 -0.21527,-0.180022 -0.29597,-0.387681 -0.0897,-0.297519 -0.0538,-0.387688 V 74.1761 h 7.86583 v -3.17372 h -7.91069 v -1.749127 l 0.0629,-0.33355 0.13455,-0.288585 0.21527,-0.22534 0.27804,-0.171461 0.30493,-0.05389 h 6.86131 z"
       id="path1007-9-1"
       inkscape:connector-curvature="0" />
    <path
       style="fill:#ffffff;fill-opacity:1;stroke:#000064;stroke-width:0.025;stroke-linecap:butt;stroke-linejoin:miter;stroke-miterlimit:4;stroke-dasharray:none;stroke-opacity:1"
       d="m 266.19108,65.032527 h -7.31873 l -1.11216,0.578254 -0.78928,0.614429 -0.6099,0.686664 -0.53814,0.722851 -0.43051,1.048087 v 0.542095 7.083711 l 0.25114,0.93967 0.68164,0.975803 1.00453,1.011988 0.89691,0.433653 0.6099,0.07226 h 7.53398 v -3.144287 h -6.99584 l -0.32289,-0.03624 -0.21526,-0.180527 -0.29599,-0.388535 -0.0897,-0.298131 -0.0538,-0.388534 v -1.111359 h 7.86583 V 71.01396 h -7.91068 v -1.752858 l 0.0629,-0.334256 0.13454,-0.289191 0.21526,-0.225586 0.27805,-0.171716 0.30494,-0.05416 h 6.86131 z"
       id="path1007-9-19"
       inkscape:connector-curvature="0" />
    <path
       style="fill:#ffffff;fill-opacity:1;stroke:#000064;stroke-width:0.025;stroke-linecap:butt;stroke-linejoin:miter;stroke-miterlimit:4;stroke-dasharray:none;stroke-opacity:1"
       d="m 301.43033,64.993224 h -7.31874 l -1.11216,0.57984 -0.78926,0.616093 -0.6099,0.68853 -0.53815,0.724783 -0.43052,1.050957 v 0.543555 7.102923 l 0.25115,0.942242 0.68164,0.97842 1.00453,1.014726 0.89691,0.434845 0.6099,0.07252 h 7.53397 v -3.152827 h -6.99583 l -0.3229,-0.0365 -0.21527,-0.181027 -0.29597,-0.389574 -0.0897,-0.298956 -0.0539,-0.389568 V 74.17985 h 7.86583 v -3.189079 h -7.91068 V 69.23317 l 0.0628,-0.335182 0.13456,-0.289943 0.21526,-0.226346 0.27804,-0.172214 0.30495,-0.05416 h 6.86131 z"
       id="path1007-9-0"
       inkscape:connector-curvature="0" />
    <path
       style="fill:#ffffff;fill-opacity:1;stroke:#000064;stroke-width:0.025;stroke-linecap:butt;stroke-linejoin:miter;stroke-miterlimit:4;stroke-dasharray:none;stroke-opacity:1"
       d="m 178.63905,90.648985 h -7.31873 l -1.11216,0.576157 -0.78926,0.612169 -0.6099,0.684174 -0.53814,0.720198 -0.43054,1.044262 v 0.540099 7.057806 l 0.25127,0.93624 0.68165,0.97224 1.00454,1.00828 0.8969,0.43207 0.6099,0.072 h 7.53398 v -3.1328 h -6.99584 l -0.32288,-0.0361 -0.21526,-0.18003 -0.296,-0.38707 -0.0897,-0.29708 -0.0539,-0.3871 v -1.107274 h 7.86586 v -3.16881 h -7.9107 v -1.74647 l 0.063,-0.333042 0.13445,-0.288106 0.21527,-0.224835 0.27803,-0.170954 0.30495,-0.05385 h 6.86129 z"
       id="path1007-9-5"
       inkscape:connector-curvature="0" />
    <path
       style="fill:#ffffff;fill-opacity:1;stroke:#000064;stroke-width:0.025;stroke-linecap:butt;stroke-linejoin:miter;stroke-miterlimit:4;stroke-dasharray:none;stroke-opacity:1"
       d="m 194.51969,90.655293 h -7.31871 l -1.11218,0.577748 -0.78926,0.61386 -0.60989,0.68601 -0.53815,0.722167 -0.43051,1.047122 v 0.5416 7.07709 l 0.25102,0.93881 0.68163,0.97487 1.00453,1.01103 0.8969,0.43329 0.60989,0.0722 h 7.53399 v -3.14137 h -6.99585 l -0.32287,-0.0363 -0.21527,-0.18053 -0.29598,-0.38815 -0.0897,-0.29788 -0.0539,-0.38813 v -1.110328 h 7.86584 v -3.177466 h -7.91068 v -1.751231 l 0.0626,-0.333955 0.13445,-0.288907 0.21527,-0.225592 0.27803,-0.171455 0.30496,-0.05385 h 6.86128 z"
       id="path1007-9-6"
       inkscape:connector-curvature="0" />
    <path
       style="fill:#ffffff;fill-opacity:1;stroke:#000064;stroke-width:0.025;stroke-linecap:butt;stroke-linejoin:miter;stroke-miterlimit:4;stroke-dasharray:none;stroke-opacity:1"
       d="m 215.33704,90.645659 h -7.31875 l -1.11217,0.578047 -0.78927,0.614184 -0.60988,0.686388 -0.53816,0.722568 -0.43051,1.047655 v 0.541901 7.080858 l 0.25128,0.93933 0.68163,0.97539 1.00453,1.01159 0.89689,0.43348 0.6099,0.0723 h 7.53399 v -3.14304 h -6.99583 l -0.32289,-0.0363 -0.21527,-0.18052 -0.29598,-0.38836 -0.0897,-0.29803 -0.0539,-0.38839 v -1.110901 h 7.86584 v -3.179156 h -7.91068 v -1.752156 l 0.0626,-0.334132 0.13445,-0.289051 0.21527,-0.225603 0.27804,-0.1717 0.30495,-0.05385 h 6.86131 z"
       id="path1007-9-7"
       inkscape:connector-curvature="0" />
    <path
       style="fill:#ffffff;fill-opacity:1;stroke:#000064;stroke-width:0.025;stroke-linecap:butt;stroke-linejoin:miter;stroke-miterlimit:4;stroke-dasharray:none;stroke-opacity:1"
       d="m 243.05379,90.59674 h -7.31872 l -1.11217,0.578804 -0.78926,0.614985 -0.6099,0.687322 -0.53814,0.723491 -0.43054,1.049079 v 0.542591 7.090258 l 0.25127,0.94055 0.68166,0.97671 1.00452,1.01292 0.89691,0.43406 0.6099,0.0723 h 7.53398 v -3.14722 h -6.99584 l -0.32287,-0.0363 -0.21527,-0.18078 -0.29598,-0.38888 -0.0897,-0.29843 -0.0538,-0.38887 v -1.112369 h 7.86584 v -3.183385 h -7.91069 v -1.754469 l 0.0626,-0.334589 0.13445,-0.28943 0.21527,-0.225847 0.27802,-0.171967 0.30495,-0.05418 h 6.8613 z"
       id="path1007-9-74"
       inkscape:connector-curvature="0" />
    <path
       style="fill:#ffffff;fill-opacity:1;stroke:#000064;stroke-width:0.025;stroke-linecap:butt;stroke-linejoin:miter;stroke-miterlimit:4;stroke-dasharray:none;stroke-opacity:1"
       d="m 251.45782,65.033659 h 3.03153 v 14.719915 h -2.9831 z"
       id="path1009-0-0"
       inkscape:connector-curvature="0" />
    <path
       style="fill:#ffffff;fill-opacity:1;stroke:#000064;stroke-width:0.025;stroke-linecap:butt;stroke-linejoin:miter;stroke-miterlimit:4;stroke-dasharray:none;stroke-opacity:1"
       d="m 136.96136,90.643623 h 3.03154 v 14.958737 h -2.9831 z"
       id="path1009-0-6"
       inkscape:connector-curvature="0" />
    <path
       style="fill:#ffffff;fill-opacity:1;stroke:#000064;stroke-width:0.025;stroke-linecap:butt;stroke-linejoin:miter;stroke-miterlimit:4;stroke-dasharray:none;stroke-opacity:1"
       d="m 152.94573,90.611815 h 3.03154 V 105.3109 h -2.98313 z"
       id="path1009-0-4"
       inkscape:connector-curvature="0" />
    <path
       style="fill:#ffffff;fill-opacity:1;stroke:#000064;stroke-width:0.025;stroke-linecap:butt;stroke-linejoin:miter;stroke-miterlimit:4;stroke-dasharray:none;stroke-opacity:1"
       d="m 216.7509,105.40794 h 3.1964 V 94.854748 l 0.10146,-0.355149 0.19035,-0.260036 0.25368,-0.202929 0.30443,-0.127154 0.38686,-0.05062 h 0.17749 l 0.3298,0.02548 0.3298,0.101464 0.26636,0.190091 0.23464,0.304438 0.12061,0.298086 v 10.616571 h 3.05053 V 94.664235 l 0.20293,-0.380515 0.3298,-0.240945 0.32977,-0.13948 0.46931,-0.05062 h 0.21577 l 0.31711,0.07599 0.27904,0.240956 0.34247,0.393197 0.038,0.266345 v 10.527857 h 3.1964 V 94.118885 l -0.20292,-0.532745 -0.54542,-0.91327 -0.71031,-0.799089 -0.79911,-0.558078 -0.91327,-0.469362 -0.69761,-0.164658 -0.62153,-0.07599 h -0.52007 l -0.62151,0.164913 -0.58348,0.253684 -0.5454,0.329782 -0.26638,0.240945 -0.16491,0.127142 -0.22836,-0.202929 -0.40588,-0.380537 -0.50738,-0.342431 -0.54542,-0.190347 -0.482,-0.101464 -0.46931,-0.01513 h -0.50737 l -0.49469,0.114059 -0.78642,0.279094 -0.73566,0.38047 -0.83715,0.608877 -0.59615,0.710307 -0.29175,0.48199 -0.22838,0.532734 -0.25365,0.697647 -0.0889,0.621504 z"
       id="path1011-2-7"
       inkscape:connector-curvature="0" />
    <path
       style="fill:#ffffff;fill-opacity:1;stroke:#000064;stroke-width:0.025;stroke-linecap:butt;stroke-linejoin:miter;stroke-miterlimit:4;stroke-dasharray:none;stroke-opacity:1"
       d="m 344.00032,105.38077 h 3.19641 V 94.82759 l 0.10146,-0.355159 0.19033,-0.260036 0.25366,-0.20293 0.30444,-0.127142 0.38683,-0.05062 h 0.17753 l 0.32982,0.02548 0.32981,0.101464 0.26632,0.19009 0.23463,0.30445 0.12063,0.298063 v 10.6166 h 3.05053 V 94.637077 l 0.20297,-0.380514 0.32975,-0.240945 0.32982,-0.139481 0.4693,-0.05062 h 0.2155 l 0.31709,0.07599 0.27905,0.240944 0.34247,0.393198 0.0379,0.266356 v 10.527855 h 3.19642 V 94.091727 l -0.20291,-0.532755 -0.54545,-0.91326 -0.71032,-0.799078 -0.79912,-0.558088 -0.91323,-0.469363 -0.6976,-0.164657 -0.62159,-0.07599 h -0.52 l -0.62152,0.164913 -0.58348,0.253684 -0.54545,0.329782 -0.26633,0.240945 -0.16494,0.127142 -0.22836,-0.202929 -0.40588,-0.380526 -0.50735,-0.342443 -0.54545,-0.190335 -0.48195,-0.101464 -0.46938,-0.01513 h -0.50734 l -0.49469,0.114047 -0.78639,0.279095 -0.7357,0.380481 -0.83716,0.608865 -0.59614,0.710308 -0.29171,0.482001 -0.22836,0.532723 -0.25374,0.697646 -0.0889,0.621504 z"
       id="path1011-2-4"
       inkscape:connector-curvature="0" />
    <path
       style="fill:#ffffff;fill-opacity:1;stroke:#000064;stroke-width:0.025;stroke-linecap:butt;stroke-linejoin:miter;stroke-miterlimit:4;stroke-dasharray:none;stroke-opacity:1"
       d="m 203.26447,75.508473 v -6.250457 l 0.2379,-0.570954 0.23791,-0.300489 0.26764,-0.240449 0.65426,-0.210484 h 2.79547 l 0.56504,0.240449 0.20817,0.270432 0.0297,0.330552 h 2.37913 l -0.11896,-0.931538 -0.32714,-0.841405 -0.80295,-1.171965 -0.86242,-0.42069 -0.9814,-0.210485 h -3.92555 l -1.04086,0.510854 -0.62452,0.661111 -0.50556,0.811343 -0.38661,0.991664 v 8.384002 l 0.44608,1.232059 0.77322,0.871443 1.57617,0.781332 1.2193,0.120094 h 3.03338 l 0.95164,-0.390653 1.27877,-1.201995 0.41635,-1.021707 V 76.019001 H 208.439 v 0.450727 l -0.17843,0.360588 -0.1487,0.09014 -0.56504,0.05989 h -3.65789 l -0.43123,-0.420717 -0.16354,-0.450726 -0.0297,-0.300516 z"
       id="path1012-85"
       inkscape:connector-curvature="0" />
    <path
       style="fill:#ffffff;fill-opacity:1;stroke:#000064;stroke-width:0.025;stroke-linecap:butt;stroke-linejoin:miter;stroke-miterlimit:4;stroke-dasharray:none;stroke-opacity:1"
       d="m 212.32495,65.201291 v 2.983737 h 3.46973 V 79.594603 H 218.234 V 68.206025 h 3.65899 v -2.962713 z"
       id="path1262"
       inkscape:connector-curvature="0" />
    <path
       style="fill:#ffffff;fill-opacity:1;stroke:#000064;stroke-width:0.025;stroke-linecap:butt;stroke-linejoin:miter;stroke-miterlimit:4;stroke-dasharray:none;stroke-opacity:1"
       d="m 279.97632,65.200138 v 2.994502 h 3.46973 v 11.450851 h 2.43934 V 68.215744 h 3.65897 v -2.973438 z"
       id="path1262-8"
       inkscape:connector-curvature="0" />
    <path
       style="fill:#ffffff;fill-opacity:1;stroke:#000064;stroke-width:0.025;stroke-linecap:butt;stroke-linejoin:miter;stroke-miterlimit:4;stroke-dasharray:none;stroke-opacity:1"
       d="m 157.33166,90.824468 v 2.961731 h 3.46975 V 105.1117 h 2.43931 V 93.80707 h 3.659 v -2.940904 z"
       id="path1262-2"
       inkscape:connector-curvature="0" />
    <path
       style="fill:#ffffff;fill-opacity:1;stroke:#000064;stroke-width:0.025;stroke-linecap:butt;stroke-linejoin:miter;stroke-miterlimit:4;stroke-dasharray:none;stroke-opacity:1"
       d="m 256.48181,90.800303 v 2.988132 h 3.46973 v 11.426505 h 2.43933 V 93.809484 h 3.65899 v -2.967115 z"
       id="path1262-6"
       inkscape:connector-curvature="0" />
    <path
       style="fill:#ffffff;fill-opacity:1;stroke:#000064;stroke-width:0.025;stroke-linecap:butt;stroke-linejoin:miter;stroke-miterlimit:4;stroke-dasharray:none;stroke-opacity:1"
       d="m 283.75212,105.16662 h 2.57427 l 0.0735,-6.271557 h 4.56183 l 0.24171,0.08533 0.33629,0.255976 0.18933,0.309322 0.12616,0.362614 0.0201,0.383985 v 4.83165 h 2.33314 v -6.036875 l -0.11556,-0.309312 -0.26273,-0.341297 -0.27324,-0.255986 -0.33632,-0.192104 0.26275,-0.202429 0.3153,-0.320003 0.2417,-0.394632 0.15761,-0.533279 0.0841,-0.746599 v -0.757302 l -0.0735,-1.002575 -0.18279,-0.830852 -0.40359,-0.845861 -0.62427,-0.690092 -0.56015,-0.526871 -0.77772,-0.192093 -0.61483,-0.103467 h -2.13676 l 6.1e-4,2.661933 2.6004,-0.01505 0.22308,0.165926 0.26753,0.346916 0.0743,0.37711 v 1.357544 l -0.14879,0.573186 -0.25266,0.226349 -0.327,0.196131 -0.5202,0.09034 h -4.41428 l 0.008,-3.318448 h 2.48962 v -2.661965 h -5.12474 z"
       id="path1291-0"
       inkscape:connector-curvature="0"
       sodipodi:nodetypes="cccccccccccccccccccccccccccccccccccccccccccccc" />
    <path
       style="fill:#ffffff;fill-opacity:1;stroke:#000064;stroke-width:0.025;stroke-linecap:butt;stroke-linejoin:miter;stroke-miterlimit:4;stroke-dasharray:none;stroke-opacity:1"
       d="m 319.80607,105.1714 h 3.13186 v -6.271531 h 4.07778 l 0.24169,0.08533 0.33634,0.255987 0.18932,0.309322 0.12611,0.362614 0.02,0.383988 v 4.83165 h 2.3332 v -6.036889 l -0.11558,-0.309323 -0.2628,-0.341308 -0.27325,-0.255975 -0.33628,-0.192104 0.26273,-0.202685 0.3153,-0.319958 0.24174,-0.394655 0.15762,-0.533279 0.0841,-0.746588 v -0.757312 l -0.0735,-1.002586 -0.24168,-0.778596 -0.46246,-0.778641 -0.53598,-0.682616 -0.6411,-0.437299 -0.70413,-0.341286 -0.57802,-0.170698 h -2.13675 v 2.646857 h 2.60099 l 0.22302,0.165914 0.26761,0.346927 0.0743,0.37711 v 1.357534 l -0.14881,0.573174 -0.25268,0.226337 -0.32695,0.196143 -0.52026,0.09034 h -3.95349 v -3.318447 h 2.03623 v -2.661965 h -4.87505 z"
       id="path1291-6"
       inkscape:connector-curvature="0" />
    <path
       style="fill:#ffffff;fill-opacity:1;stroke:#000064;stroke-width:0.025;stroke-linecap:butt;stroke-linejoin:miter;stroke-miterlimit:4;stroke-dasharray:none;stroke-opacity:1"
       d="m 271.41083,105.13862 h 3.13202 v -6.164733 l 4.0036,-0.0227 0.46458,0.01769 0.20997,-0.03071 0.30073,-0.05262 0.21526,-0.08211 0.22081,-0.09846 0.30469,-0.100685 0.20143,-0.157604 0.1634,-0.124372 0.142,-0.106471 0.142,-0.112045 0.12614,-0.0959 0.142,-0.223578 0.142,-0.127643 0.19991,-0.255608 0.17851,-0.34617 0.15761,-0.532523 0.0841,-0.745531 v -0.756233 l -0.0735,-1.001151 -0.2417,-0.777483 -0.46245,-0.777528 -0.53604,-0.68166 -0.6411,-0.436676 -0.70418,-0.340796 -0.57805,-0.170454 h -2.13687 v 2.643108 h 2.60114 l 0.22308,0.165659 0.26754,0.346414 0.0743,0.376587 v 1.35561 l -0.14879,0.572351 -0.25266,0.226092 -0.327,0.195887 -0.52024,0.09034 -3.95368,-0.0152 v -3.313742 h 2.03631 v -2.643106 l -4.87529,1.46e-4 z"
       id="path1291-6-6"
       inkscape:connector-curvature="0"
       sodipodi:nodetypes="cccccccccccccccccccccccccccccccccccccccccccccc" />
    <path
       style="fill:#ffffff;fill-opacity:1;stroke:#000064;stroke-width:0.025;stroke-linecap:butt;stroke-linejoin:miter;stroke-miterlimit:4;stroke-dasharray:none;stroke-opacity:1"
       d="m 185.26939,65.224179 1.50087,2.7e-5 v 11.716239 l -0.17843,0.539378 -0.56504,0.764113 -0.56504,0.479404 -0.62452,0.449487 -0.86244,0.344582 -0.35686,0.02997 h -0.90704 v -2.651874 h 0.68399 l 0.44609,-0.05989 0.342,-0.104736 0.29738,-0.344601 0.0446,-0.404529 v -10.75013 z"
       id="path1331"
       inkscape:connector-curvature="0"
       sodipodi:nodetypes="cccccccccccccccccc" />
    <path
       style="fill:#ffffff;fill-opacity:1;stroke:#000064;stroke-width:0.025;stroke-linecap:butt;stroke-linejoin:miter;stroke-miterlimit:4;stroke-dasharray:none;stroke-opacity:1"
       d="m 196.06387,90.643589 h 3.24344 v 10.603931 l 0.0358,0.43904 0.0897,0.14024 0.20167,0.24875 0.19738,0.14024 0.2198,0.0768 0.30047,0.0176 h 0.21074 3.13019 v 3.01172 h -4.03605 l -0.60093,-0.1629 -0.66374,-0.31655 -0.6278,-0.45224 -0.52022,-0.54262 -0.46638,-0.6602 -0.33186,-0.61502 -0.18833,-0.42506 -0.10748,-0.47032 -0.0718,-0.48836 -0.0269,-0.59696 z"
       id="path1034-2-4"
       inkscape:connector-curvature="0"
       sodipodi:nodetypes="cccccccccccccccccccccccc" />
    <path
       style="fill:#ffffff;fill-opacity:1;stroke:#000064;stroke-width:0.025;stroke-linecap:butt;stroke-linejoin:miter;stroke-miterlimit:4;stroke-dasharray:none;stroke-opacity:1"
       d="m 268.37054,79.581913 h 2.14493 V 68.663799 l 0.16823,-0.337906 0.27338,-0.401251 0.33646,-0.168944 0.5888,-0.105748 h 3.19636 l 0.4416,0.253439 0.25234,0.380127 0.18927,0.464577 v 10.850565 h 2.41828 V 68.431339 l -0.0841,-0.718015 -0.33644,-0.612415 -0.58881,-0.823633 -0.58881,-0.48572 -0.69394,-0.422355 -0.5888,-0.168943 h -4.16368 l -0.73601,0.168943 -0.52571,0.295659 -0.60983,0.485726 -0.42057,0.549045 -0.25235,0.464602 -0.31543,0.760256 -0.10513,0.50685 v 10.791416 z"
       id="path1348"
       inkscape:connector-curvature="0"
       sodipodi:nodetypes="cccccccccccccccccccccccccccccc" />
    <path
       style="fill:#ffffff;fill-opacity:1;stroke:#000064;stroke-width:0.025;stroke-linecap:butt;stroke-linejoin:miter;stroke-miterlimit:4;stroke-dasharray:none;stroke-opacity:1"
       d="m 141.46756,105.33915 h 2.14404 V 94.328233 l 0.16811,-0.340774 0.27326,-0.404645 0.33632,-0.170454 0.58857,-0.106471 h 3.19504 l 0.44142,0.255575 0.25225,0.383373 0.18934,0.468529 v 10.734064 h 2.41731 V 94.093886 l -0.0841,-0.724104 -0.33633,-0.617621 -0.58857,-0.83063 -0.58857,-0.489856 -0.69364,-0.425928 -0.58857,-0.170454 h -4.16195 l -0.73571,0.170454 -0.52549,0.298152 -0.6096,0.489845 -0.42039,0.553738 -0.25223,0.468551 -0.31532,0.766736 -0.10513,0.511117 v 10.883164 z"
       id="path1348-6"
       inkscape:connector-curvature="0"
       sodipodi:nodetypes="ccccccccccccccccccccccccccccc" />
    <path
       style="fill:#ffffff;fill-opacity:1;stroke:#000064;stroke-width:0.025;stroke-linecap:butt;stroke-linejoin:miter;stroke-miterlimit:4;stroke-dasharray:none;stroke-opacity:1"
       d="m 245.14241,105.32637 h 2.14409 V 94.323405 l 0.16818,-0.340552 0.27328,-0.404345 0.33632,-0.170198 0.58857,-0.106471 h 3.19512 l 0.44144,0.255397 0.25223,0.383073 0.18933,0.468195 v 10.726306 h 2.41737 V 94.08928 l -0.0841,-0.723603 -0.33632,-0.617176 -0.58854,-0.830018 -0.58858,-0.4895 -0.69371,-0.425628 -0.58857,-0.170198 h -4.16206 l -0.7357,0.170198 -0.52552,0.297952 -0.6096,0.4895 -0.42039,0.553326 -0.25225,0.468195 -0.31533,0.76618 -0.10525,0.510772 v 10.87529 z"
       id="path1348-2"
       inkscape:connector-curvature="0"
       sodipodi:nodetypes="ccccccccccccccccccccccccccccc" />
    <path
       style="fill:#ffffff;fill-opacity:1;stroke:#000064;stroke-width:0.025;stroke-linecap:butt;stroke-linejoin:miter;stroke-miterlimit:4;stroke-dasharray:none;stroke-opacity:1"
       d="m 125.08165,105.168 h 2.20912 v -6.310708 h 7.49023 v -2.048417 h -7.49023 v -2.669108 l 0.13677,-0.268981 0.17884,-0.186308 0.32611,-0.186318 0.43132,-0.103468 h 6.34357 V 90.82063 h -6.92447 l -0.81083,0.153576 -0.53559,0.248755 -0.38681,0.314596 -0.4017,0.519383 -0.25291,0.519394 -0.16365,0.4901 -0.11156,0.526715 -0.0372,0.760806 v 10.637995 z"
       id="path1371"
       inkscape:connector-curvature="0"
       sodipodi:nodetypes="ccccccccccccccccccccccc" />
    <path
       style="fill:#ffffff;fill-opacity:1;stroke:#000064;stroke-width:0.025;stroke-linecap:butt;stroke-linejoin:miter;stroke-miterlimit:4;stroke-dasharray:none;stroke-opacity:1"
       d="M 303.00821,65.227077 V 79.75526 h 6.53664 0.68696 l 0.95761,-0.419305 0.64533,-0.566018 0.52043,-0.754719 0.45798,-1.153026 0.14574,-0.796641 v -7.903485 l -0.14574,-0.733749 -0.45798,-0.796641 -0.64533,-0.670856 -0.81188,-0.482169 -0.93677,-0.230884 h -0.74943 -1.35313 v 2.683443 h 2.12337 l 0.37471,0.188581 0.18734,0.230623 0.16656,0.356392 0.0832,0.60796 v 6.1425 l -0.0832,0.461198 -0.27063,0.377364 -0.31226,0.125629 -0.62451,0.125637 h -3.89285 V 67.93071 l 2.24827,3.27e-4 v -2.68327 z"
       id="path1373"
       inkscape:connector-curvature="0"
       sodipodi:nodetypes="ccccccccccccccccccccccccccccccccc" />
    <path
       style="fill:#ffffff;fill-opacity:1;stroke:#000064;stroke-width:0.025;stroke-linecap:butt;stroke-linejoin:miter;stroke-miterlimit:4;stroke-dasharray:none;stroke-opacity:1"
       d="m 318.1652,94.178384 v -0.896437 l -0.0885,-0.59764 -0.32382,-0.687245 -0.52992,-0.508012 -0.6477,-0.358553 -0.76541,-0.298798 h -4.76934 l -0.97151,0.478085 -0.76541,0.627501 -0.52993,0.747022 -0.32389,0.776894 -0.11784,1.374544 v 7.589875 l 0.47111,1.04582 0.8243,0.83667 1.0304,0.59764 1.03041,0.23894 h 3.70941 l 1.17763,-0.44821 0.70659,-0.62753 0.70652,-1.04581 0.29445,-1.16538 v -5.109686 h -3.59171 v 2.270949 h 1.00097 l 0.26493,0.14956 0.11784,0.238931 v 2.539906 l -0.20618,0.29881 -0.35332,0.14955 -0.67709,0.1196 h -3.47393 l -0.44159,-0.1196 -0.23542,-0.26892 -0.14729,-0.56773 v -7.022116 l 0.11785,-0.448213 0.29438,-0.268914 0.44159,-0.208982 0.79492,-0.08967 h 3.50337 v 0.926309 h 2.46024 z"
       id="path1375"
       inkscape:connector-curvature="0" />
    <path
       style="fill:#00afff;fill-opacity:1;stroke:none;stroke-width:3.24558115;stroke-linecap:butt;stroke-linejoin:miter;stroke-miterlimit:4;stroke-dasharray:none;stroke-opacity:1"
       d="M 103.67518,15.409647 54.727765,37.368541 59.144069,55.279109 46.385855,77.606014 12.527464,94.289852 V 108.02947 H 104.0432 Z"
       id="path826-3-7"
       inkscape:connector-curvature="0"
       sodipodi:nodetypes="cccccccc" />
    <path
       style="fill:none;stroke:#000064;stroke-width:3.24558115;stroke-linecap:butt;stroke-linejoin:miter;stroke-miterlimit:4;stroke-dasharray:none;stroke-opacity:1"
       d="M 103.67518,15.409647 54.727765,37.368541 59.144069,55.279126 46.385855,77.606014 12.527481,92.343483 V 108.02949 H 104.0432 Z"
       id="path826-1"
       inkscape:connector-curvature="0"
       sodipodi:nodetypes="cccccccc" />
    <ellipse
       style="fill:#000064;fill-opacity:1;stroke-width:3.24558115;stroke-miterlimit:4;stroke-dasharray:none;stroke-dashoffset:0"
       id="path828-2"
       cx="-103.51197"
       cy="-15.652256"
       rx="7.4166541"
       ry="7.3732829"
       transform="scale(-1)" />
    <ellipse
       style="fill:#000064;fill-opacity:1;stroke-width:3.24558115;stroke-miterlimit:4;stroke-dasharray:none;stroke-dashoffset:0"
       id="path828-3-2"
       cx="-54.935356"
       cy="-37.439545"
       rx="7.4166541"
       ry="7.3732829"
       transform="scale(-1)" />
    <ellipse
       style="fill:#000064;fill-opacity:1;stroke-width:3.24558115;stroke-miterlimit:4;stroke-dasharray:none;stroke-dashoffset:0"
       id="path828-6-0"
       cx="-58.867058"
       cy="-56.464752"
       rx="7.4166541"
       ry="7.3732829"
       transform="scale(-1)" />
    <ellipse
       style="fill:#000064;fill-opacity:1;stroke-width:3.24558115;stroke-miterlimit:4;stroke-dasharray:none;stroke-dashoffset:0"
       id="path828-7-2"
       cx="-46.363457"
       cy="-77.964523"
       rx="7.4166541"
       ry="7.3732829"
       transform="scale(-1)" />
    <ellipse
       style="fill:#000064;fill-opacity:1;stroke-width:3.24558115;stroke-miterlimit:4;stroke-dasharray:none;stroke-dashoffset:0"
       id="path828-5-1"
       cx="-12.772823"
       cy="-109.47537"
       rx="7.4166541"
       ry="7.3732829"
       transform="scale(-1)" />
    <path
       style="fill:#000064;fill-opacity:1;stroke:#000064;stroke-width:0.34349063px;stroke-linecap:butt;stroke-linejoin:miter;stroke-opacity:1"
       d="M 85.6734,8.3203809 40.913277,26.883728 46.985392,52.560095 39.178385,66.439211 11.073165,80.885989 V 8.3203809 Z"
       id="path876-7"
       inkscape:connector-curvature="0"
       sodipodi:nodetypes="ccccccc" />
    <ellipse
       style="fill:#000064;fill-opacity:1;stroke-width:3.24558115;stroke-miterlimit:4;stroke-dasharray:none;stroke-dashoffset:0"
       id="path828-3-5-5"
       cx="-104.28855"
       cy="-108.76553"
       rx="7.416656"
       ry="7.3732829"
       transform="scale(-1)" />
    <ellipse
       style="fill:#000064;fill-opacity:1;stroke-width:3.24558115;stroke-miterlimit:4;stroke-dasharray:none;stroke-dashoffset:0"
       id="path828-7-6-17"
       cx="-103.92052"
       cy="-78.280769"
       rx="7.416656"
       ry="7.3732829"
       transform="scale(-1)" />
    <ellipse
       style="fill:#000064;fill-opacity:1;stroke-width:3.24558115;stroke-miterlimit:4;stroke-dasharray:none;stroke-dashoffset:0"
       id="path828-5-2-4"
       cx="-12.404816"
       cy="-91.373375"
       rx="7.416656"
       ry="7.3732829"
       transform="scale(-1)" />
    <ellipse
       style="fill:#000064;fill-opacity:1;stroke-width:3.24558115;stroke-miterlimit:4;stroke-dasharray:none;stroke-dashoffset:0"
       id="path828-7-9-1"
       cx="-52.0289"
       cy="-109.01088"
       rx="7.416656"
       ry="7.3732829"
       transform="scale(-1)" />
    <ellipse
       style="fill:#000064;fill-opacity:1;stroke-width:3.24558115;stroke-miterlimit:4;stroke-dasharray:none;stroke-dashoffset:0"
       id="path828-7-6-1-7"
       cx="-103.92052"
       cy="-47.795963"
       rx="7.416656"
       ry="7.3732829"
       transform="scale(-1)" />
    <path
       style="fill:none;stroke:#000064;stroke-width:2.59646463;stroke-linecap:butt;stroke-linejoin:miter;stroke-miterlimit:4;stroke-dasharray:none;stroke-opacity:1"
       d="M 59.144069,55.279126 103.5525,47.059881"
       id="path978-11"
       inkscape:connector-curvature="0" />
    <path
       style="fill:none;stroke:#000064;stroke-width:2.59646463;stroke-linecap:butt;stroke-linejoin:miter;stroke-miterlimit:4;stroke-dasharray:none;stroke-opacity:1"
       d="M 103.92053,78.587415 46.385855,77.606014"
       id="path980-1"
       inkscape:connector-curvature="0" />
    <path
       style="fill:none;stroke:#000064;stroke-width:2.59646463;stroke-linecap:butt;stroke-linejoin:miter;stroke-miterlimit:4;stroke-dasharray:none;stroke-opacity:1"
       d="M 52.028903,108.64287 46.385855,77.606014"
       id="path982-7"
       inkscape:connector-curvature="0" />
    <path
       style="fill:#ffffff;fill-opacity:1;stroke:#000064;stroke-width:0.025;stroke-linecap:butt;stroke-linejoin:miter;stroke-miterlimit:4;stroke-dasharray:none;stroke-opacity:1"
       d="m 124.5502,51.787864 h 16.10394 l 2.41934,-0.756058 1.96575,-1.360881 1.66331,-2.041351 1.13408,-2.419375 0.37802,-3.099797 -0.75604,-3.477844 -1.81453,-2.872998 -2.19255,-1.89014 -1.96574,-0.604841 h -8.16537 l -1.20968,-0.453629 -0.45363,-0.60484 -0.37803,-0.907252 -0.15122,-0.982888 0.15122,-1.285293 0.98287,-0.831646 0.90726,-0.378042 h 9.90428 v -6.80447 h -10.35791 l -1.51211,0.453629 -1.89013,1.134075 -2.04134,1.66334 -1.66332,1.814504 -0.52923,1.663335 -0.22682,2.116945 v 2.041327 l 0.45363,2.268157 1.20969,1.814534 1.81452,1.890134 1.4365,0.982864 1.81454,0.83167 1.36088,0.15117 h 6.65326 l 1.3609,0.907252 0.45363,1.209687 v 1.436511 l -0.52923,0.83164 -0.68046,0.604841 -0.90725,0.302435 H 124.5502 Z"
       id="path990-0"
       inkscape:connector-curvature="0" />
    <path
       style="fill:#ffffff;fill-opacity:1;stroke:#000064;stroke-width:0.025;stroke-linecap:butt;stroke-linejoin:miter;stroke-miterlimit:4;stroke-dasharray:none;stroke-opacity:1"
       d="m 184.59697,51.958542 h 16.10394 l 2.41935,-0.756058 1.96572,-1.360881 1.66334,-2.041352 1.13408,-2.419375 0.37801,-3.099797 -0.75605,-3.477838 -1.81453,-2.873004 -2.19255,-1.890133 -1.9657,-0.604847 h -8.16539 l -1.20969,-0.453623 -0.45362,-0.604847 -0.37804,-0.907252 -0.15117,-0.982888 0.15117,-1.285293 0.98288,-0.831646 0.90725,-0.378041 h 9.90429 v -6.804471 h -10.35791 l -1.51212,0.453629 -1.89012,1.134081 -2.04135,1.663335 -1.66332,1.814504 -0.52923,1.66334 -0.22682,2.116939 v 2.041328 l 0.45362,2.268157 1.20971,1.814534 1.81451,1.890134 1.43651,0.982863 1.81453,0.831671 1.36088,0.151169 h 6.65329 l 1.36088,0.907252 0.45362,1.209688 v 1.436511 l -0.52923,0.83164 -0.68045,0.60484 -0.90727,0.302436 h -14.74302 z"
       id="path990-2-40"
       inkscape:connector-curvature="0" />
    <path
       style="fill:#ffffff;fill-opacity:1;stroke:#000064;stroke-width:0.025;stroke-linecap:butt;stroke-linejoin:miter;stroke-miterlimit:4;stroke-dasharray:none;stroke-opacity:1"
       d="m 173.3156,21.016519 h -15.42347 l -2.34376,1.209687 -1.66332,1.285293 -1.28529,1.436493 -1.13409,1.512116 -0.90727,2.192552 v 1.134075 14.818617 l 0.52926,1.965752 1.43648,2.041327 2.11695,2.116964 1.89013,0.907252 1.2853,0.151175 h 15.8771 V 45.210151 H 158.9506 l -0.68045,-0.07558 -0.45363,-0.378041 -0.62374,-0.812743 -0.18896,-0.623738 -0.11339,-0.812773 v -2.324872 h 16.57645 v -6.653255 h -16.67097 v -3.66685 l 0.13239,-0.699349 0.28354,-0.604841 0.45362,-0.472544 0.58595,-0.359126 0.64263,-0.113376 h 14.45951 z"
       id="path1007-8"
       inkscape:connector-curvature="0" />
    <path
       style="fill:#ffffff;fill-opacity:1;stroke:#000064;stroke-width:0.025;stroke-linecap:butt;stroke-linejoin:miter;stroke-miterlimit:4;stroke-dasharray:none;stroke-opacity:1"
       d="m 175.96177,20.903119 h 6.38866 v 31.371887 h -6.28659 z"
       id="path1009-5"
       inkscape:connector-curvature="0" />
    <path
       style="fill:#ffffff;fill-opacity:1;stroke:#000064;stroke-width:0.025;stroke-linecap:butt;stroke-linejoin:miter;stroke-miterlimit:4;stroke-dasharray:none;stroke-opacity:1"
       d="m 210.2254,52.061176 h 6.7361 V 29.821404 l 0.21386,-0.748455 0.40094,-0.54797 0.53462,-0.427696 0.64153,-0.267306 0.81528,-0.106819 h 0.37422 l 0.695,0.05341 0.695,0.213855 0.56133,0.400943 0.49452,0.641551 0.25394,0.628151 v 22.373428 h 6.42869 V 29.420484 l 0.42769,-0.801906 0.69498,-0.507895 0.695,-0.294017 0.98902,-0.106813 h 0.45442 l 0.66825,0.160451 0.5881,0.507871 0.72171,0.828658 0.0801,0.561323 V 51.95447 h 6.73608 V 28.271265 l -0.42767,-1.122693 -1.14942,-1.924604 -1.49692,-1.684022 -1.68401,-1.176126 -1.92461,-0.989037 -1.47016,-0.347493 -1.30981,-0.16045 h -1.09594 l -1.3098,0.347492 -1.22961,0.534624 -1.14939,0.694978 -0.56136,0.507895 -0.34748,0.267288 -0.48117,-0.427691 -0.85536,-0.801911 -1.06922,-0.721731 -1.14943,-0.400944 -1.01574,-0.213855 -0.98904,-0.0267 h -1.06922 l -1.04249,0.240583 -1.6573,0.588075 -1.55036,0.801912 -1.7642,1.283053 -1.25635,1.496908 -0.6148,1.015766 -0.48114,1.122675 -0.5346,1.470186 -0.18716,1.309806 z"
       id="path1011-1"
       inkscape:connector-curvature="0" />
    <path
       style="fill:#ffffff;fill-opacity:1;stroke:#000064;stroke-width:0.025;stroke-linecap:butt;stroke-linejoin:miter;stroke-miterlimit:4;stroke-dasharray:none;stroke-opacity:1"
       d="m 243.34506,44.548667 0.16068,-16.432218 0.15925,-1.194634 0.86968,-1.342733 1.02847,-1.290903 1.01574,-0.908839 1.14942,-0.96229 1.17613,-0.588076 1.22962,-0.507871 1.47017,-0.267311 h 7.48453 l 1.79095,0.481148 1.06922,0.668273 1.57712,1.363235 1.06921,1.17615 1.06922,1.470185 0.66826,1.550366 0.13374,1.042489 v 16.679836 l -0.40096,0.962291 -0.77519,1.176126 -1.06921,1.202874 -1.76421,1.363258 -1.25635,0.721731 -1.25632,0.374239 h -10.0774 l -1.01576,-0.374239 -1.30978,-0.721731 -1.0425,-0.908839 -0.88211,-0.855363 -0.93557,-1.363252 -0.56134,-0.962314 -0.48114,-0.882092 -0.29357,-0.669496 6.57285,-1.19549 0.16543,0.47725 0.11813,0.321302 0.24002,0.344708 0.32076,0.481142 0.4277,0.33414 0.53461,0.187156 h 6.42867 l 0.52125,-0.227213 0.40097,-0.280664 0.52124,-0.521242 0.28066,-0.521241 0.13375,-0.721731 V 30.249142 l -0.0801,-0.708355 -0.22721,-0.561346 -0.36086,-0.521248 -0.48115,-0.42769 -0.48117,-0.213861 h -6.7227 l -0.60145,0.213861 -0.41432,0.294034 -0.37422,0.400968 -0.28068,0.521247 -0.0634,0.462677 -0.006,13.643748 z"
       id="path1013-6"
       inkscape:connector-curvature="0"
       sodipodi:nodetypes="ccccccccccccccccccccccccccccccccccccccccccccccccccccccccccccc" />
    <path
       style="fill:#ffffff;fill-opacity:1;stroke:#000064;stroke-width:0.025;stroke-linecap:butt;stroke-linejoin:miter;stroke-miterlimit:4;stroke-dasharray:none;stroke-opacity:1"
       d="m 268.84285,35.721748 v 4.233903 h 13.49554 v -4.120479 z"
       id="path1015-6"
       inkscape:connector-curvature="0" />
    <path
       style="fill:#ffffff;fill-opacity:1;stroke:#000064;stroke-width:0.025;stroke-linecap:butt;stroke-linejoin:miter;stroke-miterlimit:4;stroke-dasharray:none;stroke-opacity:1"
       d="m 284.3758,20.733028 8.33393,31.102612 h 7.59746 l 8.23299,-30.995685 h -6.62915 l -5.23919,18.28366 -4.9184,-18.28366 z"
       id="path1017-2"
       inkscape:connector-curvature="0" />
    <path
       style="fill:#ffffff;fill-opacity:1;stroke:#000064;stroke-width:0.025;stroke-linecap:butt;stroke-linejoin:miter;stroke-miterlimit:4;stroke-dasharray:none;stroke-opacity:1"
       d="m 328.53581,52.212867 8.33392,-31.102612 h 7.59747 l 8.23299,30.995684 h -6.62915 l -5.23919,-18.283654 -4.91841,18.283654 z"
       id="path1017-7-1"
       inkscape:connector-curvature="0" />
    <path
       style="fill:#ffffff;fill-opacity:1;stroke:#000064;stroke-width:0.025;stroke-linecap:butt;stroke-linejoin:miter;stroke-miterlimit:4;stroke-dasharray:none;stroke-opacity:1"
       d="m 310.47062,20.865301 h 6.83521 v 22.160957 l 0.0756,0.917569 0.18897,0.292969 0.42529,0.519774 0.41584,0.292975 0.46306,0.160678 0.6332,0.03778 h 0.44419 6.59656 v 6.294127 h -8.5056 l -1.2664,-0.340223 -1.39869,-0.661556 -1.32309,-0.945046 -1.09628,-1.134099 -0.98287,-1.379778 -0.69934,-1.285299 -0.39694,-0.888355 -0.22681,-0.982876 -0.15117,-1.020658 -0.0566,-1.247499 z"
       id="path1034-9"
       inkscape:connector-curvature="0"
       sodipodi:nodetypes="cccccccccccccccccccccccc" />
    <path
       style="fill:#ffffff;fill-opacity:1;stroke:#000064;stroke-width:0.025;stroke-linecap:butt;stroke-linejoin:miter;stroke-miterlimit:4;stroke-dasharray:none;stroke-opacity:1"
       d="m 354.57924,21.356748 v 30.38364 h 16.56379 l 1.78939,-0.576261 1.26638,-0.812773 1.19079,-1.115161 1.03957,-1.115178 0.75606,-1.379802 0.32131,-0.869458 0.22682,-1.171894 v -3.464534 l -0.17493,-1.176144 -0.32079,-0.962315 -0.56134,-0.935561 -0.58808,-0.694985 -0.77516,-0.534617 0.6415,-0.400944 0.80192,-0.695003 0.58807,-1.015747 0.42769,-1.149422 0.0534,-1.09594 v -3.207665 l -0.13374,-1.256349 -0.29401,-1.015742 -0.5079,-1.17615 -0.72173,-1.015766 -1.28303,-1.176127 -0.93561,-0.695002 -1.44344,-0.775183 -1.41671,-0.641527 -0.98904,-0.240583 h -4.41053 v 6.041102 h 3.79573 l 0.66828,0.374215 0.61477,0.454419 0.40097,0.534624 0.24056,0.775183 v 2.352271 l -0.34748,0.908839 -0.72174,0.668273 -0.40094,0.213861 -0.93556,0.213854 h -3.31459 v 6.148011 h 4.2234 l 0.69501,0.320763 0.45442,0.400962 0.2406,0.507877 0.16045,0.908833 v 1.443438 l -0.21386,0.748448 -0.58807,0.66828 -0.72171,0.42769 -0.695,0.187156 -0.48113,0.05341 h -7.77859 v -5.720326 l 4.69787,0.05341 v -6.1213 h -4.69787 v -6.535597 l 4.70305,0.01132 v -6.029552 z"
       id="path1036-6"
       inkscape:connector-curvature="0"
       sodipodi:nodetypes="ccccccccccccccccccccccccccccccccccccccccccccccccccccccccccccccccc" />
    <path
       style="fill:#ffffff;fill-opacity:1;stroke:#000064;stroke-width:0.025;stroke-linecap:butt;stroke-linejoin:miter;stroke-miterlimit:4;stroke-dasharray:none;stroke-opacity:1"
       d="m 239.28691,79.593297 h 2.57399 l 0.0734,-6.293844 h 4.56133 l 0.24158,0.0856 0.33626,0.256889 0.18923,0.31044 0.12607,0.363888 0.0201,0.385343 v 4.848829 h 2.3329 V 73.49211 l -0.11549,-0.310388 -0.26271,-0.342543 -0.27322,-0.256855 -0.33627,-0.192859 0.26271,-0.203184 0.31528,-0.321138 0.24157,-0.396016 0.15755,-0.535176 0.084,-0.749257 v -0.759981 l -0.0734,-1.00614 -0.18269,-0.83383 -0.40354,-0.848834 -0.62421,-0.692555 -0.56009,-0.528752 -0.77763,-0.192612 -0.61478,-0.103723 h -2.13655 v 2.656097 h 2.60073 l 0.22294,0.166678 0.26749,0.348152 0.0742,0.378442 v 1.362379 l -0.14872,0.575204 -0.25263,0.227098 -0.32696,0.196889 -0.52014,0.09064 h -4.4138 l 0.008,-3.330231 2.48889,-0.01525 4.4e-4,-2.656175 h -5.12419 z"
       id="path1291-0-6"
       inkscape:connector-curvature="0"
       sodipodi:nodetypes="cccccccccccccccccccccccccccccccccccccccccccccc" />
    <path
       style="fill:#ffffff;fill-opacity:1;stroke:#000064;stroke-width:0.025;stroke-linecap:butt;stroke-linejoin:miter;stroke-miterlimit:4;stroke-dasharray:none;stroke-opacity:1"
       d="m 136.13923,71.604853 v 2.133081 l 2.79061,-0.0116 -0.0277,2.815807 2.10078,-0.01563 -0.0442,-2.839329 2.78633,0.0195 -1.7e-4,-2.094019 -2.75322,0.0048 0.0171,-3.169443 -2.18656,0.03411 v 3.143894 z"
       id="path1014"
       inkscape:connector-curvature="0"
       sodipodi:nodetypes="ccccccccccccc" />
    <path
       style="fill:#ffffff;fill-opacity:1;stroke:#000064;stroke-width:0.025;stroke-linecap:butt;stroke-linejoin:miter;stroke-miterlimit:4;stroke-dasharray:none;stroke-opacity:1"
       d="m 144.36988,71.612663 v 2.133081 l 2.79061,-0.0116 -0.0277,2.815807 2.10078,-0.01563 -0.0442,-2.839329 2.78633,0.0195 -1.7e-4,-2.094019 -2.75322,0.0048 0.0171,-3.169443 -2.18656,0.03411 v 3.143894 z"
       id="path1014-6"
       inkscape:connector-curvature="0"
       sodipodi:nodetypes="ccccccccccccc" />
  </g>
</svg>
